<?xml version="1.0" standalone="no"?>
<!DOCTYPE svg PUBLIC "-//W3C//DTD SVG 20010904//EN"
 "http://www.w3.org/TR/2001/REC-SVG-20010904/DTD/svg10.dtd">
<svg version="1.0" xmlns="http://www.w3.org/2000/svg"
 width="451.000000pt" height="592.000000pt" viewBox="0 0 451.000000 592.000000"
 preserveAspectRatio="xMidYMid meet">

<g transform="translate(0.000000,592.000000) scale(0.100000,-0.100000)"
fill="#000000" stroke="none">
<path d="M2040 5547 c-102 -51 -291 -144 -420 -207 -286 -141 -490 -253 -642
-354 -764 -506 -1141 -1554 -908 -2523 75 -311 263 -686 505 -1008 358 -476
849 -896 1507 -1288 l147 -88 33 17 c17 9 95 55 172 102 443 269 794 538 1096
841 522 523 829 1078 916 1656 22 146 25 499 5 645 -24 177 -62 344 -116 505
-119 360 -287 638 -530 880 -234 234 -410 344 -1083 676 -265 132 -486 239
-490 238 -4 0 -90 -42 -192 -92z m370 -52 c279 -134 709 -351 825 -415 349
-195 591 -409 780 -690 207 -308 329 -638 387 -1045 20 -139 17 -515 -5 -655
-40 -256 -103 -452 -222 -695 -166 -336 -363 -604 -675 -916 -341 -342 -710
-620 -1177 -888 l-92 -53 -148 88 c-786 464 -1354 1000 -1703 1608 -165 287
-260 553 -307 856 -25 163 -25 540 0 700 93 594 354 1079 768 1427 89 74 225
166 374 253 119 69 1007 510 1020 507 6 -2 84 -39 175 -82z"/>
<path d="M1860 5301 c-692 -338 -858 -440 -1095 -676 -241 -240 -391 -491
-510 -850 -87 -261 -120 -501 -112 -802 7 -288 49 -503 144 -743 218 -551 649
-1078 1255 -1538 171 -130 540 -371 664 -435 l31 -16 129 77 c754 452 1306
973 1638 1544 162 281 251 520 303 813 25 145 25 555 0 715 -63 394 -210 752
-430 1045 -33 44 -116 135 -183 202 -175 173 -323 274 -659 451 -162 85 -795
393 -805 391 -3 0 -169 -81 -370 -178z m390 -11 c0 -27 3 -30 30 -30 23 0 30
-4 30 -20 0 -16 -7 -20 -30 -20 -27 0 -30 -3 -30 -30 0 -20 -5 -30 -15 -30
-10 0 -15 10 -15 30 0 27 -3 30 -30 30 -23 0 -30 4 -30 20 0 16 7 20 30 20 27
0 30 3 30 30 0 20 5 30 15 30 10 0 15 -10 15 -30z m-231 -42 l-24 -20 28 6
c28 7 38 -8 12 -18 -26 -9 -17 -27 10 -20 14 3 25 2 25 -3 0 -15 -46 -32 -69
-26 -14 4 -21 1 -21 -9 0 -8 -20 -24 -43 -35 l-44 -21 -21 43 c-25 51 -11 72
14 23 22 -43 19 -41 43 -28 16 8 21 20 21 55 0 41 3 46 38 64 44 23 64 16 31
-11z m515 6 c13 -5 16 -25 16 -116 0 -108 0 -109 -22 -106 -16 2 -24 12 -28
31 -6 37 -61 64 -81 41 -14 -17 -45 -19 -55 -3 -6 10 132 159 147 159 4 0 14
-3 23 -6z m-698 -168 c41 -93 41 -94 20 -104 -17 -8 -32 -2 -83 34 -35 24 -63
39 -63 33 0 -5 9 -27 20 -49 24 -48 25 -66 4 -74 -9 -4 -18 -5 -18 -4 -1 2
-21 45 -43 95 -41 91 -41 93 -22 104 17 9 31 4 82 -30 34 -22 63 -39 64 -37 2
2 -8 27 -21 57 -19 40 -22 55 -13 61 24 16 33 6 73 -86z m897 85 c37 -14 67
-51 67 -83 0 -15 -3 -28 -6 -28 -17 0 -44 23 -44 39 0 23 -39 41 -66 31 -26
-10 -48 -62 -40 -95 7 -29 49 -44 71 -25 15 12 55 5 55 -10 0 -17 -45 -40 -78
-40 -43 0 -102 55 -102 94 0 36 23 79 56 105 29 23 50 26 87 12z m-381 -126
c835 -321 1318 -724 1519 -1267 196 -531 161 -1089 -101 -1623 -142 -290 -328
-535 -649 -855 -275 -275 -565 -517 -818 -684 l-71 -48 -64 43 c-430 290 -954
779 -1223 1139 -397 534 -550 1136 -435 1711 45 219 136 462 231 614 221 353
623 656 1189 895 109 46 285 116 300 119 3 1 58 -19 122 -44z m-732 3 c39 -42
24 -82 -46 -124 -18 -10 -18 -12 -1 -37 21 -33 21 -34 -3 -47 -18 -9 -24 -2
-65 80 -25 49 -45 92 -45 95 0 9 95 54 117 55 12 0 31 -10 43 -22z m1327 10
c7 -9 6 -43 -3 -103 -7 -49 -13 -98 -13 -108 -2 -32 -41 -1 -41 31 0 22 -7 32
-34 44 -30 15 -35 15 -49 1 -15 -15 -61 -10 -55 6 7 18 154 140 169 141 9 0
21 -6 26 -12z m233 -148 c28 -53 -7 -138 -67 -161 -27 -10 -74 6 -124 42 l-30
21 23 36 c12 21 37 61 55 89 l33 53 50 -31 c28 -17 55 -39 60 -49z m-1739 44
c10 -13 10 -17 -2 -25 -8 -5 -24 -7 -36 -4 -31 7 -53 -4 -53 -27 0 -17 4 -19
33 -12 62 15 88 11 111 -19 19 -26 19 -30 6 -55 -21 -38 -85 -68 -119 -56 -14
5 -27 17 -29 25 -4 20 24 32 46 20 25 -13 62 5 62 29 0 20 -4 21 -60 14 -50
-5 -64 -4 -80 11 -28 25 -25 52 9 86 34 33 90 40 112 13z m-145 -145 c45 -73
54 -93 43 -100 -26 -16 -34 -9 -87 78 -49 80 -51 86 -35 99 10 7 19 14 20 14
0 0 27 -41 59 -91z m2045 10 c62 -44 65 -49 48 -66 -8 -8 -23 -3 -54 19 -41
29 -65 31 -65 5 0 -7 16 -22 35 -35 33 -21 43 -41 29 -55 -4 -3 -26 7 -50 24
-43 29 -43 29 -54 8 -10 -17 -8 -23 7 -34 54 -38 66 -52 57 -68 -8 -14 -18
-10 -76 30 l-67 46 57 83 c31 46 61 84 65 84 5 0 35 -19 68 -41z m-2117 -64
c52 -74 55 -81 39 -93 -16 -11 -22 -9 -48 22 l-30 34 -32 -22 -32 -22 26 -32
c20 -26 23 -35 13 -47 -7 -8 -16 -15 -21 -15 -4 0 -33 37 -64 82 -51 73 -55
83 -41 97 14 14 19 12 43 -17 l28 -33 29 24 30 24 -22 30 c-20 28 -20 31 -4
46 19 20 14 24 86 -78z m2276 -62 c0 -7 -9 -36 -20 -65 -11 -29 -20 -56 -20
-60 0 -4 25 8 55 27 62 40 62 40 93 17 l24 -18 -66 -77 c-36 -43 -69 -78 -73
-79 -4 0 -12 6 -17 15 -8 12 -4 23 15 44 56 62 57 68 4 38 -27 -16 -55 -32
-61 -37 -7 -5 -17 -2 -25 8 -11 13 -10 24 5 67 10 29 21 59 24 67 3 8 -14 -8
-38 -37 -36 -44 -46 -51 -62 -42 -22 12 -21 14 56 107 58 70 59 71 82 54 13
-9 24 -23 24 -29z m-2559 -149 c14 -13 22 -13 39 -4 31 17 46 -2 20 -25 l-20
-18 20 -22 c18 -19 19 -24 6 -34 -11 -10 -17 -8 -29 9 -14 21 -16 21 -40 5
-32 -20 -47 -2 -21 26 16 18 16 20 0 38 -10 11 -15 25 -11 30 9 15 15 14 36
-5z m2695 -103 c-67 -67 -77 -74 -91 -61 -13 14 -6 24 56 93 69 75 72 77 91
60 18 -16 17 -19 -56 -92z m-2920 4 c3 -7 -6 -30 -21 -49 -24 -32 -25 -35 -8
-44 14 -9 23 -4 44 20 18 22 31 29 43 25 15 -6 14 -10 -10 -42 -26 -34 -26
-37 -10 -53 16 -16 19 -15 49 22 28 32 34 36 45 24 11 -14 -7 -46 -65 -118 -2
-2 -13 1 -24 8 -17 11 -23 10 -38 -10 -14 -17 -16 -27 -9 -44 7 -15 6 -28 -3
-45 -7 -13 -13 -28 -14 -34 0 -9 -52 -114 -60 -123 -5 -6 -185 89 -185 97 0 3
5 13 10 21 8 13 21 9 84 -22 l76 -38 20 40 c11 22 27 40 35 40 8 0 15 2 15 5
0 3 -23 50 -50 105 l-50 100 51 65 c52 67 66 76 75 50z m3092 -46 c11 -18 7
-31 -39 -115 -47 -87 -53 -94 -67 -80 -12 12 -13 20 -5 39 10 21 8 28 -15 51
-19 17 -37 25 -57 23 -20 -1 -30 3 -33 14 -2 12 21 25 90 51 113 43 110 43
126 17z m84 -284 c9 -20 14 -22 30 -14 21 11 48 6 48 -9 0 -5 -11 -14 -25 -20
-22 -10 -24 -15 -15 -31 14 -27 13 -41 -4 -41 -8 0 -18 9 -21 20 -7 23 -18 25
-46 10 -15 -9 -21 -7 -26 6 -5 14 6 28 31 37 5 2 4 13 -3 25 -12 23 -8 42 10
42 5 0 14 -11 21 -25z m-3370 -142 c40 -37 74 -72 76 -78 1 -6 -3 -18 -10 -27
-12 -15 -24 -15 -108 -6 -123 13 -124 13 -110 38 10 19 17 21 83 15 l72 -7
-53 49 c-40 35 -52 53 -47 66 4 9 11 17 15 17 5 0 41 -30 82 -67z m3581 -103
c34 -27 45 -81 23 -115 -9 -14 -23 -25 -31 -25 -18 0 -20 31 -4 47 18 18 2 63
-21 63 -18 0 -20 -7 -20 -54 0 -63 -16 -86 -61 -86 -59 0 -92 107 -47 152 l22
22 10 -24 c8 -17 7 -25 -2 -28 -17 -5 -15 -57 3 -72 24 -20 35 -2 35 55 0 44
4 57 22 69 29 21 40 20 71 -4z m-3693 -49 c0 -12 -28 -41 -40 -41 -13 0 -20
-44 -9 -55 7 -7 23 5 51 38 45 52 75 60 108 27 24 -24 25 -48 6 -95 -14 -34
-41 -55 -70 -55 -25 0 -19 39 8 49 13 5 26 17 30 26 21 57 -20 61 -58 6 -32
-45 -61 -56 -93 -35 -49 31 -15 144 43 144 13 0 24 -4 24 -9z m-5 -202 c114
-29 114 -51 0 -92 l-70 -25 40 -11 c22 -6 48 -11 58 -11 20 0 34 -27 21 -40
-5 -5 -51 1 -106 13 -75 17 -98 26 -98 38 0 23 16 33 80 54 30 10 59 21 63 25
5 4 -19 13 -52 19 -50 10 -61 16 -61 32 0 25 19 24 125 -2z m3699 -85 c6 -23
11 -26 36 -20 25 5 30 2 30 -14 0 -15 -7 -20 -25 -20 -22 0 -25 -4 -25 -35 0
-43 -25 -48 -33 -7 -5 25 -9 28 -36 24 -39 -5 -44 23 -6 32 20 5 25 13 25 36
0 38 25 40 34 4z m-3745 -129 c46 -8 86 -17 88 -19 3 -2 2 -13 -1 -23 -6 -19
-9 -19 -109 -3 -56 9 -101 19 -99 23 1 4 2 14 2 22 0 19 14 19 119 0z m3895
-156 c10 -103 8 -119 -13 -119 -15 0 -21 8 -23 32 l-3 31 -87 -2 c-81 -2 -88
-1 -88 17 0 26 18 32 101 32 l69 0 0 35 c0 27 4 35 19 35 15 0 19 -11 25 -61z
m-3884 -38 c0 -25 4 -30 28 -33 16 -2 27 -9 27 -18 0 -10 -8 -14 -27 -12 -22
2 -27 -2 -30 -25 -2 -17 -10 -29 -20 -31 -14 -3 -18 3 -18 27 0 26 -4 31 -25
31 -18 0 -25 5 -25 18 0 15 6 18 30 14 28 -4 30 -2 30 27 0 21 5 31 15 31 10
0 15 -10 15 -29z m3890 -136 c0 -22 -4 -25 -40 -25 -40 0 -40 0 -40 -39 0 -39
1 -40 38 -43 30 -2 38 -7 40 -25 3 -22 1 -23 -85 -23 -107 0 -133 6 -133 31 0
16 8 19 50 19 l50 0 0 39 0 39 -50 7 c-40 6 -50 11 -50 26 0 18 8 19 110 19
l110 0 0 -25z m-3830 -125 c0 -19 -17 -23 -157 -33 -50 -4 -53 -3 -53 19 0 20
6 23 53 28 71 8 140 12 150 8 4 -2 7 -12 7 -22z m-7 -89 c10 -10 21 -37 24
-59 5 -36 2 -45 -24 -71 -38 -38 -74 -47 -124 -32 -44 13 -69 50 -69 101 0 29
29 70 50 70 19 0 23 -30 6 -49 -34 -37 -7 -81 50 -81 35 0 74 28 74 54 0 19
-27 46 -46 46 -8 0 -14 10 -14 26 0 24 3 25 28 19 15 -3 35 -14 45 -24z m3739
19 c69 -20 101 -102 62 -159 -59 -84 -207 -43 -207 58 0 63 33 98 103 110 3 1
22 -4 42 -9z m-3692 -223 c0 -21 -8 -25 -87 -41 -47 -10 -92 -20 -99 -23 -11
-4 -31 34 -22 43 5 4 172 41 196 43 6 1 12 -9 12 -22z m3648 -19 c48 -11 89
-22 90 -24 2 -1 1 -16 -3 -33 l-6 -30 -81 -3 -80 -3 66 -35 c48 -25 66 -41 66
-55 0 -46 -11 -48 -114 -21 -54 13 -100 27 -103 29 -3 3 -2 14 1 25 7 20 7 20
69 1 88 -27 92 -23 15 17 -67 34 -76 45 -59 73 7 10 26 12 87 7 l79 -6 -75 22
c-41 11 -76 22 -78 23 -1 1 0 10 4 19 8 21 17 20 122 -6z m-3629 -60 c7 -19 0
-32 -41 -77 -27 -29 -47 -55 -45 -57 2 -2 27 3 56 11 53 16 71 14 71 -10 0 -9
-32 -23 -87 -40 -49 -14 -94 -28 -100 -30 -7 -2 -16 7 -19 21 -6 22 2 34 47
80 58 59 57 61 -17 39 -62 -19 -61 -19 -67 5 -4 17 4 22 66 40 40 12 83 25 97
30 14 5 26 9 28 9 1 1 6 -9 11 -21z m3544 -216 l78 -78 -27 -75 c-32 -87 -35
-91 -54 -79 -12 7 -12 15 -2 43 16 44 15 54 -4 61 -11 4 -20 -5 -31 -34 -15
-37 -31 -49 -46 -34 -3 3 1 24 8 45 14 38 13 40 -8 48 -19 7 -24 3 -38 -33 -9
-22 -22 -41 -28 -40 -6 1 -15 2 -21 3 -5 0 1 29 14 64 20 52 28 62 47 62 16 0
28 9 35 25 9 21 8 29 -8 46 -17 19 -17 54 1 54 3 0 41 -35 84 -78z m-3480 -1
c4 -17 -9 -25 -91 -55 -52 -19 -99 -33 -104 -30 -4 3 -8 13 -8 23 0 14 21 26
83 49 98 37 113 38 120 13z m25 -81 c2 -10 -17 -26 -50 -43 l-53 -27 68 6 c91
8 98 -9 31 -77 l-49 -50 59 27 c48 22 60 24 67 13 5 -8 9 -16 9 -19 0 -7 -167
-90 -180 -90 -6 0 -16 11 -22 25 -11 24 -8 30 38 76 l49 51 -71 -7 c-69 -7
-70 -6 -82 20 -7 15 -11 29 -10 30 2 2 39 21 83 43 83 43 108 47 113 22z m128
-264 c55 -55 43 -125 -26 -161 -34 -17 -83 -19 -111 -5 -51 28 -61 116 -16
158 54 51 108 53 153 8z m3147 8 c3 -3 1 -17 -5 -30 -9 -20 -7 -26 12 -42 31
-25 19 -46 -16 -30 -23 11 -28 9 -44 -12 -14 -19 -22 -22 -30 -14 -9 9 -9 18
0 35 11 20 10 25 -9 37 -22 15 -29 42 -10 42 6 0 19 -5 31 -11 16 -9 23 -7 35
10 14 21 25 26 36 15z m-3037 -188 c22 -15 80 -94 73 -99 -2 -2 -41 -29 -86
-61 l-82 -57 -31 42 c-41 57 -47 85 -26 123 31 59 106 84 152 52z m2912 -76
c55 -80 61 -92 50 -110 -16 -25 -16 -25 -123 5 -127 36 -117 31 -103 55 8 13
22 19 41 17 38 -3 68 42 49 74 -10 16 -10 24 -1 35 6 8 14 14 18 14 4 0 35
-40 69 -90z m-2759 -127 c11 10 13 8 8 -12 -3 -14 -1 -31 5 -38 7 -9 7 -13 0
-13 -6 0 -14 5 -17 11 -4 6 -13 8 -20 5 -18 -7 -27 5 -14 20 7 8 7 14 -1 19
-5 3 -10 11 -10 17 0 6 8 4 18 -5 15 -13 21 -14 31 -4z m2642 -7 c42 -29 64
-74 55 -112 -11 -43 -59 -84 -98 -84 -41 0 -95 32 -110 65 -6 14 -19 25 -30
25 -11 0 -18 7 -18 20 0 11 7 20 15 20 9 0 19 10 24 23 25 65 100 85 162 43z
m-2777 -60 c-19 -16 -32 -21 -39 -15 -7 7 0 18 20 34 40 33 57 15 19 -19z m76
-39 c0 -7 -9 -18 -20 -25 -17 -10 -18 -16 -10 -32 17 -32 -3 -23 -32 14 -30
38 -37 56 -13 36 11 -9 19 -8 37 4 27 19 38 20 38 3z m192 -37 c36 -28 51 -70
38 -104 -10 -28 -11 -28 -30 -11 -11 10 -17 22 -14 27 10 15 -5 55 -23 62 -32
13 -37 -11 -14 -64 21 -48 21 -53 6 -76 -15 -23 -30 -29 -65 -25 -24 3 -70 59
-70 85 0 32 23 51 40 32 6 -9 9 -20 5 -25 -10 -17 14 -51 35 -51 25 0 25 11 0
60 -11 22 -20 46 -20 55 0 23 37 55 64 55 13 0 35 -9 48 -20z m2213 -100 c11
18 20 11 21 -18 1 -25 -3 -29 -26 -29 -23 0 -27 5 -27 29 0 21 3 25 13 17 8
-7 14 -7 19 1z m190 -70 c24 20 19 -9 -7 -37 -26 -28 -42 -30 -34 -5 4 12 -3
27 -19 42 -13 12 -22 27 -19 32 4 5 19 -3 35 -18 24 -23 31 -25 44 -14z m-61
-49 c11 -12 17 -24 13 -27 -8 -9 -78 47 -71 57 7 11 33 -2 58 -30z m-2162 9
c-1 -7 3 -18 9 -26 14 -17 6 -29 -13 -18 -7 5 -22 7 -32 5 -14 -2 -17 1 -12
14 3 10 2 23 -4 30 -8 10 -3 12 22 10 20 -2 32 -8 30 -15z m-107 -25 c26 -25
32 -45 15 -45 -5 0 -10 6 -10 14 0 7 -7 19 -15 26 -21 17 -20 -3 1 -35 15 -23
15 -25 -1 -31 -19 -8 -74 40 -61 53 4 4 16 -3 26 -17 24 -30 26 -19 4 15 -29
45 2 60 41 20z m2210 16 c3 -5 -4 -12 -15 -16 -11 -3 -20 -11 -20 -16 0 -12
23 -12 36 1 15 15 44 2 44 -19 0 -22 -19 -41 -42 -41 -25 0 -22 16 5 25 14 4
17 8 9 12 -7 3 -19 -1 -27 -7 -35 -29 -60 16 -28 52 18 20 29 23 38 9z m-2120
-101 c9 -14 -14 -80 -27 -80 -6 0 -8 12 -4 30 5 28 4 30 -19 24 -38 -9 -52 7
-19 22 36 16 61 17 69 4z m1889 -64 c36 -41 66 -77 66 -80 0 -3 -8 -10 -18
-15 -16 -8 -30 2 -86 65 -56 62 -66 77 -56 89 7 8 16 15 20 15 4 0 37 -33 74
-74z m-1671 2 c8 -12 0 -38 -37 -114 -44 -91 -48 -96 -64 -81 -15 16 -14 21
11 72 15 31 27 60 27 66 0 6 -25 -3 -56 -21 -52 -29 -94 -34 -94 -10 0 12 172
110 189 107 8 -1 19 -9 24 -19z m1576 -97 l62 -74 -22 -23 -22 -24 -46 27
c-25 14 -56 33 -68 41 -22 14 -22 12 6 -56 l29 -70 -24 -23 c-28 -26 -18 -32
-102 67 -55 66 -59 75 -39 92 10 9 22 1 51 -34 21 -25 40 -44 42 -42 2 3 -5
28 -16 56 -11 29 -20 57 -20 62 0 25 33 19 92 -15 66 -39 66 -38 -1 37 -24 28
-23 62 3 56 7 -2 41 -36 75 -77z m-1479 14 c10 -12 10 -28 1 -72 -18 -93 -16
-97 33 -45 38 40 46 44 60 33 14 -12 8 -22 -55 -92 -60 -67 -74 -77 -86 -67
-15 12 -14 69 3 148 5 21 -2 17 -40 -25 -40 -45 -47 -48 -60 -35 -14 13 -8 23
50 93 37 42 70 77 74 77 4 0 13 -7 20 -15z m1228 -205 c29 -38 55 -76 58 -84
7 -17 -80 -86 -109 -86 -29 0 -67 39 -67 69 0 15 13 38 31 57 l31 32 -21 31
c-20 28 -20 30 -4 40 10 6 20 10 23 10 3 0 29 -31 58 -69z m-1017 21 c79 -80
-22 -227 -121 -176 -62 32 -77 94 -38 151 43 62 111 73 159 25z m180 -140 c35
-36 38 -81 9 -129 -24 -38 -79 -65 -115 -56 -49 12 -86 75 -69 118 8 22 44 -2
44 -29 0 -52 56 -60 94 -14 31 37 33 60 6 84 -17 15 -24 16 -47 6 -22 -10 -29
-9 -42 4 -15 15 -14 17 3 31 33 24 84 18 117 -15z m659 -98 c0 -26 -20 -22
-44 9 l-25 32 -25 -23 c-14 -14 -29 -21 -33 -17 -5 4 10 23 32 42 l40 34 27
-33 c15 -17 28 -37 28 -44z m-380 -118 c0 -21 5 -25 31 -25 24 0 30 -4 27 -17
-2 -11 -14 -19 -31 -21 -21 -3 -27 -9 -27 -28 0 -17 -5 -24 -20 -24 -15 0 -20
7 -20 25 0 20 -5 25 -25 25 -18 0 -25 5 -25 20 0 15 7 20 25 20 20 0 25 5 25
25 0 18 5 25 20 25 15 0 20 -7 20 -25z"/>
<path d="M1981 5204 c0 -11 3 -14 6 -6 3 7 2 16 -1 19 -3 4 -6 -2 -5 -13z"/>
<path d="M2483 5178 c-28 -30 -28 -34 -2 -41 23 -6 32 9 27 43 l-3 22 -22 -24z"/>
<path d="M2210 5063 c-118 -42 -331 -132 -469 -199 -720 -347 -1066 -739
-1205 -1364 -81 -365 -52 -758 80 -1120 46 -124 148 -333 217 -442 254 -401
777 -916 1305 -1285 l94 -65 91 63 c505 347 1006 832 1275 1234 154 231 293
559 341 805 102 533 -4 1071 -292 1473 -204 284 -590 563 -1071 772 -113 49
-336 136 -346 134 -3 0 -12 -3 -20 -6z m46 -62 c-4 -6 -16 -11 -27 -11 -21 0
-27 35 -6 43 16 6 41 -18 33 -32z m-108 -29 c4 -26 1 -26 47 -6 37 15 46 14
108 -11 13 -5 17 -2 17 12 0 27 9 34 31 22 25 -13 24 -28 -2 -37 -18 -7 -13
-11 35 -29 38 -14 53 -17 46 -7 -15 17 -4 34 21 34 20 0 26 -29 9 -46 -6 -6 5
-15 33 -26 42 -15 43 -15 43 5 -1 13 6 23 17 25 24 5 35 -28 14 -43 -14 -10
-8 -15 35 -33 29 -12 47 -17 41 -11 -16 16 -5 39 18 39 22 0 27 -34 7 -46 -8
-5 2 -14 27 -25 39 -18 40 -18 43 1 2 12 11 20 22 20 25 0 35 -17 19 -36 -6
-8 -10 -16 -8 -18 2 -1 20 -12 40 -24 l36 -21 -1 21 c-1 14 6 24 17 26 23 5
35 -28 15 -42 -14 -10 -10 -15 22 -33 37 -20 39 -20 43 -2 6 21 32 26 43 8 3
-6 1 -16 -5 -22 -17 -17 -14 -23 24 -46 34 -20 35 -20 35 -1 0 22 34 28 45 10
9 -14 -14 -41 -29 -34 -6 3 -2 -2 9 -11 28 -23 75 -47 74 -38 -4 21 2 33 16
33 22 0 31 -31 13 -44 -13 -9 -9 -15 24 -38 35 -26 38 -26 38 -8 0 13 7 20 19
20 25 0 32 -21 15 -41 -12 -13 -5 -22 54 -72 37 -30 87 -76 111 -101 39 -40
46 -43 56 -29 15 21 48 10 43 -14 -2 -11 -12 -18 -25 -17 -19 0 -16 -5 21 -47
24 -26 67 -84 97 -128 50 -76 69 -95 69 -71 0 16 30 11 37 -6 8 -20 -17 -36
-34 -22 -7 6 7 -32 32 -84 24 -51 61 -145 83 -209 33 -100 41 -114 55 -105 12
7 20 7 28 -1 16 -16 1 -36 -23 -30 -17 5 -19 2 -14 -18 18 -70 37 -189 41
-260 10 -131 13 -144 35 -138 23 6 39 -22 22 -39 -8 -8 -15 -8 -25 0 -12 10
-15 2 -21 -49 -10 -102 -8 -149 7 -143 8 3 19 -1 26 -9 9 -11 8 -17 -5 -28
-14 -11 -18 -10 -30 6 -13 18 -14 18 -14 -7 0 -14 -3 -39 -6 -55 -5 -26 -3
-30 17 -29 12 1 24 -5 26 -11 6 -17 -27 -29 -37 -13 -10 16 -16 4 -25 -47 -6
-38 -5 -41 13 -36 24 6 39 -14 23 -30 -9 -9 -16 -9 -30 0 -16 10 -20 8 -25
-15 -3 -15 -8 -37 -12 -49 -5 -18 -3 -21 14 -16 25 6 38 -13 21 -33 -11 -13
-14 -13 -28 0 -13 14 -19 5 -51 -87 -66 -186 -181 -404 -303 -572 -246 -338
-677 -752 -1094 -1050 -170 -122 -148 -117 -240 -55 -354 240 -743 591 -1050
948 -179 207 -345 493 -430 742 -21 61 -32 79 -43 74 -28 -10 -34 -9 -38 9 -4
22 27 35 39 16 12 -19 11 -3 -4 56 -8 30 -16 45 -21 37 -12 -19 -48 -15 -44 6
2 10 12 17 27 16 18 -1 21 3 17 20 -3 12 -11 57 -17 101 -7 44 -14 82 -15 84
-2 2 -10 -2 -18 -8 -17 -14 -36 -7 -36 14 0 21 19 28 35 15 18 -15 19 9 9 133
-6 62 -10 75 -20 66 -15 -13 -34 -4 -34 16 0 20 19 28 35 15 11 -9 14 1 19 57
14 152 30 254 56 358 53 210 144 422 236 551 48 67 51 73 31 76 -12 2 -22 10
-22 18 0 20 34 25 41 7 4 -11 41 20 127 107 67 68 157 149 200 181 70 52 76
59 63 74 -19 21 -5 47 19 37 11 -4 15 -13 12 -26 -4 -17 -1 -16 34 7 42 28 45
33 28 50 -13 13 -4 33 16 33 21 0 28 -19 14 -36 -7 -9 8 -3 34 12 45 27 59 44
37 44 -5 0 -10 9 -10 21 0 15 5 20 23 17 14 -2 22 -9 21 -20 -2 -16 2 -15 37
3 35 17 38 21 27 39 -10 15 -10 22 -1 31 16 16 47 3 39 -16 -7 -19 -2 -19 37
1 42 22 42 21 28 38 -7 8 -10 20 -6 26 10 17 37 11 42 -9 5 -18 7 -18 43 -2
35 15 37 17 23 33 -18 20 -9 38 19 38 16 0 19 -5 16 -24 l-5 -23 47 21 c39 17
44 23 32 32 -20 14 -8 47 15 42 11 -2 18 -12 17 -25 0 -12 2 -20 5 -19 3 2 24
11 46 21 34 14 37 18 23 26 -22 12 -12 39 14 39 16 0 19 -5 16 -23 l-4 -23 52
20 c42 17 48 22 33 28 -22 8 -24 19 -7 36 17 17 32 10 36 -16z m-913 -472 c4
-6 1 -18 -6 -26 -11 -13 -14 -13 -27 0 -8 8 -11 19 -8 25 9 14 33 14 41 1z
m-87 -83 c4 -20 -25 -34 -39 -20 -14 14 1 45 20 41 9 -2 17 -11 19 -21z m2209
7 c8 -21 -13 -42 -28 -27 -13 13 -5 43 11 43 6 0 13 -7 17 -16z m-2297 -83 c0
-11 -5 -23 -11 -27 -15 -9 -33 12 -26 30 9 23 37 20 37 -3z m2385 9 c4 -6 1
-18 -6 -26 -11 -13 -14 -13 -27 0 -8 8 -11 19 -8 25 9 14 33 14 41 1z m-2465
-89 c0 -11 -5 -23 -11 -27 -15 -9 -33 12 -26 30 9 23 37 20 37 -3z m2620 -90
c0 -11 -5 -23 -11 -27 -15 -9 -33 12 -26 30 9 23 37 20 37 -3z m-2763 -87 c8
-21 -13 -42 -28 -27 -13 13 -5 43 11 43 6 0 13 -7 17 -16z m2830 0 c9 -23 -13
-40 -32 -24 -12 10 -13 16 -4 26 15 18 28 18 36 -2z m-2892 -109 c0 -28 -29
-25 -33 3 -3 19 0 23 15 20 10 -2 18 -12 18 -23z m-47 -98 c4 -22 -27 -35 -38
-16 -10 15 7 42 24 36 6 -2 12 -11 14 -20z m3049 7 c8 -21 -13 -42 -28 -27
-13 13 -5 43 11 43 6 0 13 -7 17 -16z m-3094 -108 c7 -18 -1 -26 -25 -26 -18
0 -25 20 -11 33 11 12 31 8 36 -7z m3142 4 c4 -6 1 -18 -6 -26 -11 -13 -14
-13 -27 0 -8 8 -11 19 -8 25 9 14 33 14 41 1z m-3177 -117 c5 -17 -26 -29 -40
-15 -6 6 -7 15 -3 22 9 14 37 9 43 -7z m3217 -3 c0 -22 -39 -19 -43 3 -3 15 1
18 20 15 12 -2 23 -10 23 -18z m-3255 -110 c0 -11 -6 -20 -14 -20 -18 0 -29
16 -21 30 11 18 35 11 35 -10z m-23 -106 c7 -20 -17 -37 -34 -23 -15 13 -6 39
13 39 8 0 17 -7 21 -16z m3333 -4 c0 -13 -7 -20 -20 -20 -19 0 -27 20 -13 33
13 14 33 6 33 -13z m-3352 -119 c-5 -24 -38 -27 -38 -3 0 10 3 21 6 25 11 11
35 -5 32 -22z m3369 13 c8 -21 -13 -42 -28 -27 -13 13 -5 43 11 43 6 0 13 -7
17 -16z m-3379 -121 c5 -17 -26 -29 -40 -15 -6 6 -7 15 -3 22 9 14 37 9 43 -7z
m3392 -3 c0 -13 -7 -20 -20 -20 -13 0 -20 7 -20 20 0 13 7 20 20 20 13 0 20
-7 20 -20z m-3392 -227 c5 -17 -26 -29 -40 -15 -6 6 -7 15 -3 22 9 14 37 9 43
-7z m3395 3 c7 -18 -1 -26 -25 -26 -18 0 -25 20 -11 33 11 12 31 8 36 -7z
m-3375 -233 c-2 -10 -10 -18 -18 -18 -8 0 -16 8 -18 18 -2 12 3 17 18 17 15 0
20 -5 18 -17z m90 -336 c2 -11 -3 -17 -16 -17 -24 0 -32 8 -25 26 7 20 37 13
41 -9z m3170 0 c2 -12 -3 -17 -17 -17 -12 0 -21 6 -21 13 0 31 32 34 38 4z
m-3130 -104 c-5 -26 -38 -29 -38 -4 0 15 6 21 21 21 14 0 19 -5 17 -17z m3090
0 c-5 -26 -38 -29 -38 -4 0 15 6 21 21 21 14 0 19 -5 17 -17z m-3041 -99 c3
-8 1 -20 -6 -27 -14 -14 -47 15 -37 32 10 16 36 13 43 -5z m2990 0 c8 -21 -13
-42 -28 -27 -13 13 -5 43 11 43 6 0 13 -7 17 -16z m-2939 -107 c4 -22 -27 -35
-38 -16 -10 15 7 42 24 36 6 -2 12 -11 14 -20z m2889 7 c8 -21 -13 -42 -28
-27 -13 13 -5 43 11 43 6 0 13 -7 17 -16z m-2831 -123 c-10 -16 -36 -13 -43 5
-8 22 18 37 36 20 7 -8 10 -19 7 -25z m2777 3 c-3 -8 -12 -14 -19 -14 -20 0
-30 30 -13 40 17 11 40 -7 32 -26z m-2718 -88 c0 -22 -14 -29 -34 -17 -19 12
-6 43 16 39 10 -2 18 -12 18 -22z m2652 8 c8 -21 -13 -42 -28 -27 -13 13 -5
43 11 43 6 0 13 -7 17 -16z m-2589 -102 c2 -14 -2 -22 -12 -22 -19 0 -29 17
-22 36 8 22 30 12 34 -14z m2528 -11 c-9 -14 -33 -14 -41 -1 -4 6 -1 18 6 26
11 13 14 13 27 0 8 -8 11 -19 8 -25z m-2456 -81 c0 -13 -7 -20 -20 -20 -13 0
-20 7 -20 20 0 13 7 20 20 20 13 0 20 -7 20 -20z m2388 -3 c2 -11 -3 -17 -17
-17 -23 0 -35 15 -26 31 10 15 39 6 43 -14z m-2312 -96 c-9 -14 -33 -14 -41
-1 -4 6 -1 18 6 26 11 13 14 13 27 0 8 -8 11 -19 8 -25z m2240 0 c-9 -14 -33
-14 -41 -1 -4 6 -1 18 6 26 11 13 14 13 27 0 8 -8 11 -19 8 -25z m-2169 -67
c8 -21 -13 -42 -28 -27 -13 13 -5 43 11 43 6 0 13 -7 17 -16z m2091 -7 c4 -21
-27 -35 -38 -17 -12 19 0 42 19 38 9 -2 17 -11 19 -21z m-2010 -86 c-5 -24
-38 -27 -38 -3 0 10 3 21 6 25 11 11 35 -5 32 -22z m1932 -2 c0 -12 -7 -19
-19 -19 -22 0 -34 23 -19 38 15 15 38 3 38 -19z m-1850 -78 c0 -22 -23 -34
-38 -19 -15 15 -3 38 19 38 12 0 19 -7 19 -19z m1770 0 c0 -19 -23 -35 -34
-24 -14 15 -5 43 14 43 13 0 20 -7 20 -19z m-1692 -83 c-2 -13 -10 -23 -18
-23 -8 0 -16 10 -18 23 -3 17 2 22 18 22 16 0 21 -5 18 -22z m1609 6 c3 -8 1
-20 -6 -27 -14 -14 -47 15 -37 32 10 16 36 13 43 -5z m-1521 -75 c3 -6 0 -17
-7 -25 -18 -17 -44 -2 -36 20 7 18 33 21 43 5z m1440 0 c3 -6 0 -17 -7 -25
-18 -17 -44 -2 -36 20 7 18 33 21 43 5z m-1356 -90 c0 -12 -7 -19 -19 -19 -26
0 -36 17 -21 35 15 18 40 8 40 -16z m1268 3 c3 -16 -2 -22 -16 -22 -24 0 -35
23 -19 39 16 16 31 8 35 -17z m-1180 -75 c4 -20 -25 -34 -40 -19 -15 15 -1 44
19 40 10 -2 19 -11 21 -21z m1095 11 c6 -19 -3 -38 -18 -38 -18 0 -28 17 -21
35 7 18 33 20 39 3z m-1013 -73 c15 -18 5 -35 -21 -35 -12 0 -19 7 -19 18 0
33 20 42 40 17z m919 -31 c-14 -14 -17 -14 -29 0 -10 13 -10 19 0 32 12 14 15
14 29 0 14 -15 14 -17 0 -32z m-824 -44 c9 -15 -14 -40 -31 -33 -22 8 -18 43
5 43 11 0 23 -5 26 -10z m740 -14 c0 -22 -14 -29 -34 -17 -19 12 -6 43 16 39
10 -2 18 -12 18 -22z m-649 -57 c10 -17 -23 -46 -37 -32 -7 7 -9 19 -6 27 7
18 33 21 43 5z m562 -10 c4 -19 -27 -34 -41 -20 -14 14 0 43 20 39 10 -2 19
-10 21 -19z m-472 -60 c3 -6 0 -17 -7 -25 -18 -17 -44 -2 -36 20 7 18 33 21
43 5z m380 0 c8 -14 -21 -43 -35 -35 -19 12 -13 46 8 46 11 0 23 -5 27 -11z
m-288 -77 c3 -16 -2 -22 -17 -22 -26 0 -36 17 -20 36 16 19 33 13 37 -14z
m190 0 c3 -16 -2 -22 -16 -22 -24 0 -35 23 -19 39 16 16 31 8 35 -17z m-100
-78 c-19 -19 -38 -11 -38 16 0 24 21 31 40 14 12 -12 12 -16 -2 -30z"/>
<path d="M2050 4879 c-712 -292 -1128 -633 -1307 -1074 -105 -257 -160 -538
-151 -765 l3 -75 803 -3 802 -2 0 990 c0 544 -1 990 -2 989 -2 0 -68 -27 -148
-60z m-524 -400 c10 -17 -13 -36 -27 -22 -12 12 -4 33 11 33 5 0 12 -5 16 -11z
m-73 -74 c1 -5 -6 -11 -15 -13 -11 -2 -18 3 -18 13 0 17 30 18 33 0z m70 0 c1
-5 -6 -11 -15 -13 -11 -2 -18 3 -18 13 0 17 30 18 33 0z m67 0 c0 -8 -7 -15
-15 -15 -8 0 -15 7 -15 15 0 8 7 15 15 15 8 0 15 -7 15 -15z m-65 -55 c20 -19
26 -19 74 -8 47 10 54 10 79 -9 15 -11 31 -34 37 -51 7 -26 14 -32 36 -32 37
0 46 -18 17 -29 -33 -12 -46 -31 -56 -77 l-8 -39 -206 -3 -206 -2 -11 44 c-6
26 -21 53 -36 65 -34 26 -34 35 -1 41 22 4 31 13 40 40 16 49 52 65 116 50 44
-11 50 -10 69 9 26 26 29 26 56 1z m252 -287 c2 -6 -6 -13 -19 -16 -13 -2 -2
-5 24 -6 64 -2 78 -9 78 -40 0 -37 -7 -42 -38 -25 -15 8 -53 14 -85 14 -53 0
-61 -3 -94 -35 -28 -28 -34 -39 -29 -60 7 -27 -3 -32 -22 -13 -17 17 -16 -9 1
-27 33 -38 37 -45 27 -45 -6 0 -20 5 -31 10 -16 9 -19 7 -19 -9 0 -15 5 -19
17 -14 11 5 14 3 9 -6 -5 -7 -16 -11 -25 -8 -14 3 -16 -2 -13 -30 3 -19 0 -33
-7 -33 -16 0 -33 39 -26 61 8 23 -11 50 -29 43 -8 -3 -20 2 -29 10 -20 20 -27
20 -27 1 0 -8 -3 -14 -7 -13 -12 2 -43 -13 -43 -22 0 -4 16 -6 35 -3 28 3 35
0 35 -14 0 -15 1 -15 13 2 8 10 19 15 25 12 12 -8 4 -47 -15 -65 -18 -18 -43
1 -43 33 0 13 -6 22 -16 22 -12 0 -14 -7 -10 -28 3 -16 1 -31 -5 -34 -14 -10
-41 16 -36 34 3 13 -6 16 -48 16 -49 0 -56 3 -118 58 -36 31 -74 57 -85 57
-55 0 -113 -89 -186 -288 -24 -67 -59 -149 -78 -183 -34 -66 -116 -162 -152
-181 -15 -8 -13 -2 10 23 82 87 158 236 209 404 46 153 97 234 159 255 43 14
75 2 142 -55 61 -53 91 -66 122 -54 28 11 39 36 24 60 -7 10 -12 25 -12 33 0
23 -33 57 -60 60 -14 2 -33 7 -42 11 -21 8 -115 2 -141 -10 -16 -7 -18 -3 -15
26 3 31 7 35 46 43 23 6 42 16 42 23 0 16 135 19 145 3 3 -5 25 -15 48 -21 23
-6 36 -14 28 -17 -8 -3 2 -13 25 -26 22 -12 39 -29 39 -38 0 -10 6 -23 13 -30
8 -8 12 -8 12 -1 0 6 12 25 26 42 14 17 22 31 17 31 -4 1 3 7 17 15 14 7 25
19 25 27 0 7 9 14 20 16 11 2 24 8 30 13 14 14 138 7 142 -8z m180 -155 c34
-32 61 -115 83 -256 23 -142 54 -258 77 -284 8 -9 12 -22 7 -29 -4 -7 -3 -10
3 -6 13 8 36 -44 31 -70 -3 -17 -32 18 -95 113 -11 16 -11 15 -3 -9 15 -42 13
-49 -9 -38 -10 6 -29 30 -40 55 -21 43 -56 185 -47 193 2 2 14 -30 27 -73 27
-92 37 -84 14 11 -18 79 -13 99 8 29 20 -68 30 -38 13 38 -8 34 -20 94 -26
132 -16 98 -45 161 -82 177 -26 11 -35 9 -71 -10 -23 -12 -64 -37 -91 -56 -28
-21 -60 -35 -77 -35 -39 0 -37 6 12 31 23 11 61 39 85 61 66 61 134 70 181 26z
m-863 -90 l-6 -33 23 35 24 35 6 -45 c3 -25 7 -36 7 -24 1 11 8 29 16 39 13
18 14 18 25 -3 6 -11 12 -33 12 -49 1 -17 3 -21 6 -10 2 9 13 17 24 17 15 0
19 -7 20 -32 1 -22 3 -26 6 -13 8 34 23 42 39 20 13 -17 16 -18 24 -5 14 21
13 -5 0 -31 -14 -25 -29 -24 -40 4 -6 15 -9 17 -9 6 -1 -9 -8 -22 -16 -29 -13
-10 -15 -9 -15 8 0 12 -4 24 -10 27 -5 3 -10 1 -10 -6 0 -15 -29 -49 -42 -49
-6 0 -7 22 -4 53 l6 52 -21 -57 c-13 -37 -26 -58 -36 -58 -13 0 -14 9 -9 53
l6 52 -23 -64 c-24 -70 -55 -100 -42 -41 5 21 4 30 -3 26 -6 -3 -13 -20 -17
-37 -4 -18 -16 -34 -28 -39 -12 -4 -23 -7 -24 -6 -4 4 34 143 46 164 18 35 20
26 5 -25 -24 -78 -11 -70 24 16 19 45 35 81 37 81 3 0 2 -15 -1 -32z m783 -31
c12 -32 12 -32 6 11 -3 23 -3 42 -1 42 3 0 20 -38 38 -85 18 -47 34 -84 36
-82 2 1 -4 29 -12 61 -8 32 -13 60 -10 63 5 5 38 -96 51 -155 7 -32 6 -33 -14
-22 -12 6 -28 25 -35 43 l-14 32 -1 -30 c-1 -27 -2 -28 -17 -14 -8 9 -22 34
-30 55 l-15 39 4 -37 c2 -25 -1 -38 -9 -38 -16 0 -25 14 -41 60 l-12 35 2 -42
c1 -24 1 -43 -1 -43 -14 0 -45 25 -52 43 l-9 22 0 -22 c-1 -32 -27 -29 -39 5
l-10 27 -1 -27 c-1 -36 -28 -37 -41 -2 -12 32 -13 44 -1 25 8 -12 12 -12 26 2
19 19 35 14 36 -11 1 -10 4 -7 8 8 4 16 14 25 26 25 12 0 22 -10 27 -25 6 -20
7 -18 3 8 -5 34 8 72 25 72 5 0 16 -21 24 -47 l15 -48 -6 60 c-5 58 -5 60 13
42 11 -10 24 -32 31 -50z m-247 -26 c0 -10 -3 -21 -7 -25 -4 -3 -6 -28 -5 -54
1 -26 -2 -54 -7 -62 -9 -13 -12 -12 -25 5 -18 25 -28 57 -14 49 6 -4 8 1 3 15
-4 13 -2 21 5 21 6 0 8 -5 4 -12 -4 -7 -3 -8 4 -4 7 4 12 24 12 45 0 21 3 41
6 44 10 10 24 -2 24 -22z m-245 -117 c-10 -19 -21 -34 -25 -34 -16 0 -26 82
-14 114 5 12 11 9 32 -15 25 -31 25 -31 7 -65z m145 43 c0 -29 -11 -67 -19
-67 -3 0 -14 14 -23 30 -17 29 -17 31 3 51 23 23 39 17 39 -14z m-113 -19 c-3
-7 -5 -2 -5 12 0 14 2 19 5 13 2 -7 2 -19 0 -25z m43 -7 c0 -32 -24 -59 -35
-41 -4 7 -2 17 4 23 6 6 11 22 11 35 0 13 4 20 10 17 6 -3 10 -19 10 -34z
m-219 -20 c6 10 9 7 9 -12 0 -14 -8 -33 -17 -42 -17 -15 -18 -12 -13 46 3 44
5 52 8 28 3 -26 6 -31 13 -20z m480 4 l8 20 2 -20 c1 -12 5 -6 9 15 7 34 7 34
9 -12 0 -25 4 -55 7 -65 5 -15 2 -14 -14 4 -11 12 -22 20 -25 17 -2 -3 -16 9
-31 26 -28 34 -36 61 -11 40 12 -10 15 -9 16 6 0 11 5 3 11 -16 9 -31 11 -33
19 -15z m-411 20 c-1 -15 -38 -61 -44 -54 -4 3 -3 20 0 37 4 22 12 30 25 29
10 -1 19 -6 19 -12z m-140 -47 c0 -60 7 -59 19 3 l9 44 1 -40 c1 -42 -25 -106
-46 -113 -10 -3 -11 9 -7 45 l5 48 -25 -58 c-13 -33 -27 -61 -30 -65 -3 -3 -5
35 -4 84 1 78 2 82 7 34 5 -45 7 -50 13 -30 4 14 8 36 8 50 0 19 2 22 9 11 8
-12 11 -9 16 12 11 44 25 31 25 -25z m656 26 c5 -18 9 -22 14 -13 5 8 11 -7
17 -37 l8 -49 6 55 c5 52 6 50 7 -27 1 -45 5 -90 9 -100 15 -42 -10 0 -33 54
l-24 58 0 -37 c0 -21 -5 -38 -10 -38 -17 0 -50 82 -48 120 1 33 1 33 11 -12
13 -62 23 -61 19 2 -4 54 13 70 24 24z m-263 -56 c3 -21 1 -40 -4 -43 -13 -9
-31 45 -24 74 8 31 21 16 28 -31z m-487 -81 c-5 -34 -18 -57 -47 -89 l-40 -43
7 35 c4 19 13 71 20 115 l13 80 -3 -83 c-3 -102 10 -87 27 30 12 83 12 83 21
41 5 -23 5 -62 2 -86z m578 92 c13 -31 11 -69 -3 -69 -4 0 -14 12 -21 28 -22
43 -23 49 -5 27 17 -19 17 -19 11 13 -7 41 1 41 18 1z m-311 -14 c4 17 5 17 6
-3 1 -27 -15 -62 -29 -62 -6 0 -10 24 -9 53 1 51 1 52 14 22 11 -25 13 -27 18
-10z m156 12 c9 -16 9 -30 2 -49 -13 -36 -25 -41 -45 -19 -16 17 -16 22 -2 55
17 42 28 45 45 13z m421 -49 c19 -112 29 -123 25 -28 l-4 85 14 -80 c8 -44 17
-96 20 -115 l7 -35 -21 19 c-34 31 -59 78 -61 116 -3 51 -1 110 4 110 2 0 10
-33 16 -72z m-517 14 c-4 -26 -4 -26 11 -8 18 23 20 18 6 -19 -15 -38 -30 -21
-30 33 0 29 4 42 9 34 4 -7 6 -25 4 -40z m-438 -57 c-21 -92 -18 -93 15 0 31
87 39 75 15 -20 -23 -85 -50 -142 -76 -155 -18 -10 -21 -10 -17 1 20 54 17 60
-10 19 -32 -50 -69 -86 -78 -77 -3 3 3 26 15 51 21 49 37 64 20 20 -5 -15 -8
-29 -6 -31 5 -5 42 57 51 85 4 11 15 30 26 42 21 24 27 45 10 35 -17 -10 -11
11 9 37 11 13 23 38 27 54 15 59 14 4 -1 -61z m670 -15 c7 -24 7 -25 -12 -7
-12 10 -20 31 -21 50 l-1 32 13 -25 c8 -14 17 -36 21 -50z m-261 -31 c-12 -42
-34 -50 -34 -12 0 15 3 38 7 51 5 21 7 22 21 8 12 -11 13 -22 6 -47z m185 -21
c1 -19 -4 -28 -14 -28 -8 0 -15 5 -15 11 0 5 -5 7 -11 4 -6 -4 -8 -13 -5 -21
8 -21 -14 -28 -32 -11 -12 13 -13 21 -4 39 9 19 11 20 11 5 2 -35 26 -10 29
29 7 76 37 55 41 -28z m140 23 l1 -24 -25 23 c-28 26 -33 42 -10 34 10 -4 15
0 16 12 0 18 1 17 9 -1 5 -11 9 -31 9 -44z m-230 16 c0 -12 -4 -31 -9 -42 -7
-15 -9 -8 -7 27 1 25 5 44 10 41 4 -2 7 -14 6 -26z m-171 -30 c-25 -35 -36
-21 -18 24 10 23 15 27 26 18 11 -9 10 -16 -8 -42z m209 21 c-3 -8 -6 -5 -6 6
-1 11 2 17 5 13 3 -3 4 -12 1 -19z m106 -38 c-7 -8 -33 32 -33 49 0 9 8 3 19
-14 10 -16 16 -32 14 -35z m-292 -38 c-21 -17 -25 -3 -10 34 l12 29 7 -25 c5
-17 2 -29 -9 -38z m74 24 c-15 -22 -35 -35 -35 -22 0 7 45 55 48 51 2 -2 -4
-15 -13 -29z m275 -2 c4 -20 8 -25 14 -16 5 8 20 -13 46 -66 40 -84 79 -122
124 -122 16 0 31 -9 42 -25 19 -29 11 -48 -9 -22 -11 16 -12 15 -13 -8 -2 -26
-20 -55 -34 -55 -5 0 -6 8 -4 18 3 9 -2 26 -10 37 -15 19 -15 19 -22 -12 -7
-36 -25 -35 -42 3 -13 27 -49 33 -59 8 -5 -14 -7 -14 -16 2 -8 14 -4 21 17 36
14 11 26 28 26 39 0 26 -62 149 -72 143 -4 -3 -8 1 -9 8 0 7 -3 26 -5 41 -4
21 -1 28 8 25 7 -3 15 -18 18 -34z m-220 -16 c0 -5 -6 -8 -14 -8 -9 0 -12 7
-9 21 4 16 8 17 14 7 5 -7 9 -16 9 -20z m-160 -7 c0 -5 -7 -11 -15 -15 -15 -5
-20 5 -8 17 9 10 23 9 23 -2z m40 -36 c-7 -9 -15 -13 -19 -10 -3 3 1 10 9 15
21 14 24 12 10 -5z m-43 -10 c0 -8 -4 -15 -9 -15 -4 0 -8 7 -8 15 0 8 4 15 8
15 5 0 9 -7 9 -15z m160 -27 c-3 -7 -5 -2 -5 12 0 14 2 19 5 13 2 -7 2 -19 0
-25z m93 -4 c0 -3 -7 -1 -15 6 -8 7 -15 17 -15 22 0 5 7 3 15 -6 8 -8 15 -18
15 -22z m50 -23 c0 -28 11 -53 45 -101 25 -35 43 -66 40 -68 -2 -2 -26 3 -52
13 -70 24 -206 30 -268 11 -27 -8 -51 -14 -53 -11 -8 7 103 185 115 185 16 0
16 -5 2 -32 -9 -18 -8 -19 10 -13 12 3 21 3 21 -2 0 -5 -10 -9 -22 -10 -26 -2
-80 -61 -71 -76 3 -6 10 -1 14 11 7 20 26 28 53 23 5 -1 12 3 16 10 5 8 10 5
15 -10 7 -23 50 -30 58 -8 3 10 9 10 26 0 11 -7 23 -13 26 -13 10 0 5 38 -7
42 -7 3 -9 14 -4 31 3 15 11 25 16 22 14 -8 13 12 -2 38 -10 20 -10 21 5 8 10
-8 17 -28 17 -50z m-109 2 c-12 -20 -14 -14 -5 12 4 9 9 14 11 11 3 -2 0 -13
-6 -23z m24 -37 c-4 -25 -11 -46 -16 -46 -12 0 -11 37 1 45 6 3 10 18 10 32 0
15 3 24 6 21 3 -4 2 -27 -1 -52z m35 -8 c0 -5 -4 -8 -10 -8 -5 0 -10 10 -10
23 0 18 2 19 10 7 5 -8 10 -18 10 -22z m-295 -14 c-16 -25 -16 -27 4 -45 25
-24 25 -22 6 -59 -19 -36 -28 -39 -19 -6 3 13 1 27 -5 30 -17 11 -48 -11 -55
-39 -7 -28 -23 -25 -36 9 -8 20 -9 19 -23 -14 l-16 -35 -7 43 c-6 41 -7 42
-25 26 -30 -27 -24 5 8 38 24 25 27 26 39 10 12 -16 13 -16 19 0 4 9 12 15 18
12 7 -2 20 9 29 26 13 23 24 30 49 30 l31 0 -17 -26z"/>
<path d="M1485 4327 c-15 -38 9 -66 29 -35 8 14 7 21 -6 35 -16 15 -18 15 -23
0z"/>
<path d="M1329 4289 c-11 -11 -19 -28 -17 -37 5 -26 51 -44 82 -32 16 6 27 6
31 0 10 -17 55 -12 55 6 0 29 -20 52 -60 68 -53 21 -66 20 -91 -5z"/>
<path d="M1570 4288 c-35 -18 -46 -29 -48 -50 -3 -22 1 -28 15 -28 11 0 24 5
29 10 7 7 19 8 37 1 18 -7 36 -7 52 -1 48 18 26 90 -27 90 -8 0 -34 -10 -58
-22z"/>
<path d="M1323 4177 c4 -10 7 -23 7 -28 0 -5 75 -9 175 -9 l175 0 0 26 c0 21
-3 24 -13 15 -8 -6 -31 -11 -53 -11 -21 0 -67 -2 -102 -6 -38 -3 -68 -2 -76 5
-7 6 -29 8 -49 4 -24 -4 -43 -1 -54 8 -15 12 -16 12 -10 -4z"/>
<path d="M1577 3983 c-4 -3 -7 -11 -7 -17 0 -6 5 -5 12 2 6 6 9 14 7 17 -3 3
-9 2 -12 -2z"/>
<path d="M1560 3939 c0 -5 5 -7 10 -4 6 3 10 8 10 11 0 2 -4 4 -10 4 -5 0 -10
-5 -10 -11z"/>
<path d="M1412 3931 c-10 -6 -10 -10 3 -21 19 -16 20 -34 0 -27 -19 8 -26 -5
-11 -19 8 -7 20 -5 41 8 17 10 25 18 18 18 -7 0 -18 11 -25 25 -9 16 -18 21
-26 16z"/>
<path d="M1540 3859 c0 -11 4 -18 10 -14 5 3 7 12 3 20 -7 21 -13 19 -13 -6z"/>
<path d="M1540 3814 c0 -8 5 -12 10 -9 6 3 10 10 10 16 0 5 -4 9 -10 9 -5 0
-10 -7 -10 -16z"/>
<path d="M2031 3480 c0 -8 4 -24 9 -35 l9 -20 0 20 c0 11 -4 27 -9 35 -9 13
-10 13 -9 0z"/>
<path d="M1131 3744 c0 -11 3 -14 6 -6 3 7 2 16 -1 19 -3 4 -6 -2 -5 -13z"/>
<path d="M1595 3681 c-3 -5 -1 -12 5 -16 5 -3 10 1 10 9 0 18 -6 21 -15 7z"/>
<path d="M1361 3674 c0 -11 3 -14 6 -6 3 7 2 16 -1 19 -3 4 -6 -2 -5 -13z"/>
<path d="M1500 3681 c0 -12 5 -21 10 -21 6 0 10 6 10 14 0 8 -4 18 -10 21 -5
3 -10 -3 -10 -14z"/>
<path d="M1351 3454 c0 -11 3 -14 6 -6 3 7 2 16 -1 19 -3 4 -6 -2 -5 -13z"/>
<path d="M1530 3453 c0 -13 5 -23 10 -23 13 0 13 11 0 30 -8 12 -10 11 -10 -7z"/>
<path d="M1420 3190 c0 -5 5 -10 10 -10 6 0 10 5 10 10 0 6 -4 10 -10 10 -5 0
-10 -4 -10 -10z"/>
<path d="M2270 3945 l0 -985 135 0 135 0 2 541 c3 470 5 543 18 550 91 46 169
100 238 163 92 85 113 96 177 96 64 0 88 -13 170 -90 79 -75 176 -142 231
-160 l34 -12 0 -544 0 -544 230 0 229 0 7 36 c9 48 -4 268 -22 374 -102 601
-414 996 -1054 1333 -149 78 -491 227 -522 227 -5 0 -8 -443 -8 -985z m740
445 c15 -28 -4 -60 -35 -60 -31 0 -50 32 -35 60 6 12 21 20 35 20 14 0 29 -8
35 -20z"/>
<path d="M2921 4269 c-13 -5 -63 -46 -111 -92 -49 -46 -118 -99 -158 -122
l-72 -40 2 -205 3 -205 390 0 390 0 2 205 3 205 -72 40 c-40 23 -109 76 -158
122 -108 102 -150 120 -219 92z m142 -83 c12 4 28 9 35 11 17 7 15 -4 -10 -48
-19 -35 -24 -37 -52 -31 -40 9 -74 8 -108 -1 -20 -5 -28 -4 -28 5 0 7 -7 26
-15 42 l-15 29 35 -6 c31 -5 38 -2 61 29 l27 35 24 -36 c20 -29 29 -35 46 -29z
m1 -108 c3 -13 1 -27 -4 -32 -6 -6 -10 -17 -10 -26 0 -8 -12 -23 -26 -33 -38
-28 -70 -15 -95 38 -31 65 -23 75 60 75 63 0 69 -2 75 -22z m-164 -87 c0 -26
23 -42 69 -48 44 -6 91 16 91 42 0 26 19 26 36 0 21 -32 10 -47 -47 -64 -22
-7 -38 -15 -35 -18 3 -4 33 2 67 12 71 22 83 17 116 -41 34 -59 31 -70 -19
-66 -33 2 -39 1 -28 -8 13 -9 10 -14 -15 -35 -41 -35 -133 -68 -164 -60 -35 9
-161 69 -186 88 -19 16 -19 16 17 17 23 0 57 -11 86 -27 59 -32 82 -27 82 19
0 18 -5 40 -10 48 -7 11 -10 4 -10 -27 0 -24 -2 -43 -5 -43 -3 0 -32 11 -65
25 -70 29 -105 32 -119 8 -16 -30 -25 -6 -10 29 17 41 67 98 86 98 8 0 28 -11
45 -25 31 -26 53 -32 63 -15 3 6 -14 19 -38 29 -55 24 -60 32 -41 59 19 27 34
28 34 3z m-103 -227 c18 -14 49 -32 68 -40 19 -8 35 -18 35 -23 0 -21 -48 -76
-69 -79 -12 -2 -40 8 -62 22 -49 33 -59 33 -29 1 l23 -25 -41 0 c-38 0 -42 3
-42 24 0 53 46 146 73 146 6 0 25 -11 44 -26z m454 -45 c10 -21 19 -52 19 -69
0 -30 -1 -30 -52 -30 l-52 0 34 30 35 31 -52 -26 c-29 -14 -57 -25 -63 -25 -7
0 -10 20 -8 52 2 44 7 53 23 57 11 2 31 12 44 22 29 23 43 14 72 -42z m-317
-25 c10 -4 16 -18 16 -40 0 -31 -3 -34 -30 -34 -33 0 -35 3 -19 49 12 34 11
33 33 25z m156 -40 c0 -28 -4 -35 -17 -32 -22 4 -30 57 -12 69 20 12 29 1 29
-37z m-75 19 c0 -6 3 -15 8 -19 16 -16 5 -24 -30 -24 -34 1 -36 2 -20 14 10 8
17 18 16 22 -3 18 1 26 14 22 6 -3 12 -10 12 -15z"/>
<path d="M2940 4070 c0 -5 5 -10 10 -10 6 0 10 5 10 10 0 6 -4 10 -10 10 -5 0
-10 -4 -10 -10z"/>
<path d="M3015 4070 c3 -5 8 -10 11 -10 2 0 4 5 4 10 0 6 -5 10 -11 10 -5 0
-7 -4 -4 -10z"/>
<path d="M2980 4040 c0 -5 5 -10 11 -10 5 0 7 5 4 10 -3 6 -8 10 -11 10 -2 0
-4 -4 -4 -10z"/>
<path d="M2985 3830 c-3 -5 1 -10 10 -10 9 0 13 5 10 10 -3 6 -8 10 -10 10 -2
0 -7 -4 -10 -10z"/>
<path d="M3085 3783 c-16 -9 -43 -20 -60 -24 -29 -7 -29 -7 -4 -8 15 -1 47 10
70 24 48 27 42 34 -6 8z"/>
<path d="M2582 3338 l3 -213 38 -3 37 -3 0 215 0 216 -40 0 -40 0 2 -212z"/>
<path d="M2743 3530 c14 -11 29 -20 35 -20 5 0 17 9 27 20 18 20 17 20 -35 20
l-53 0 26 -20z"/>
<path d="M2943 3530 c14 -11 28 -20 32 -20 4 0 18 9 32 20 l26 20 -58 0 -58 0
26 -20z"/>
<path d="M3149 3530 c28 -24 30 -24 61 0 l25 20 -55 -1 -55 0 24 -19z"/>
<path d="M3290 3334 l0 -215 38 3 37 3 3 213 2 212 -40 0 -40 0 0 -216z"/>
<path d="M2827 3508 l-27 -20 25 -20 c32 -25 37 -20 33 25 l-3 36 -28 -21z"/>
<path d="M2890 3490 c0 -45 3 -47 35 -21 l24 18 -30 22 -29 22 0 -41z"/>
<path d="M3030 3508 l-25 -20 25 -20 25 -20 3 21 c2 11 2 30 0 40 -3 19 -4 19
-28 -1z"/>
<path d="M3090 3491 c0 -47 3 -48 36 -22 l25 19 -31 22 -30 21 0 -40z"/>
<path d="M2700 3491 c0 -17 4 -31 9 -31 10 0 36 29 30 33 -2 1 -12 9 -21 16
-16 12 -18 10 -18 -18z"/>
<path d="M3225 3504 c-18 -13 -18 -15 -2 -31 20 -21 30 -13 25 20 -3 24 -5 24
-23 11z"/>
<path d="M2736 3443 c-20 -15 -36 -30 -36 -34 0 -4 16 -17 35 -29 l36 -22 34
23 c19 13 35 27 35 30 0 4 -15 18 -34 32 l-33 26 -37 -26z"/>
<path d="M2937 3440 l-38 -28 37 -26 c36 -24 38 -25 66 -8 48 28 49 35 9 64
l-37 26 -37 -28z"/>
<path d="M3140 3440 c-34 -28 -35 -29 -15 -45 46 -36 54 -37 90 -15 19 12 35
25 35 29 0 6 -37 37 -65 53 -6 4 -26 -7 -45 -22z"/>
<path d="M2826 3357 l-28 -23 27 -18 c33 -22 37 -18 33 28 l-3 36 -29 -23z"/>
<path d="M2890 3339 c0 -40 1 -41 22 -27 31 21 32 33 3 52 l-25 16 0 -41z"/>
<path d="M3030 3359 l-25 -19 25 -21 25 -21 3 21 c2 11 2 30 0 41 -3 19 -3 19
-28 -1z"/>
<path d="M3090 3340 c0 -45 1 -46 36 -24 26 18 21 34 -18 55 -16 9 -18 5 -18
-31z"/>
<path d="M2700 3335 c0 -23 2 -24 21 -15 16 9 18 14 8 26 -17 21 -29 17 -29
-11z"/>
<path d="M3221 3346 c-10 -12 -8 -17 8 -26 19 -9 21 -8 21 15 0 28 -12 32 -29
11z"/>
<path d="M2937 3292 l-39 -26 34 -28 c41 -34 45 -34 85 0 l33 27 -38 26 -37
26 -38 -25z"/>
<path d="M2725 3285 c-16 -13 -27 -26 -25 -28 3 -2 20 -14 38 -26 l33 -23 35
27 36 28 -28 23 c-36 29 -52 29 -89 -1z"/>
<path d="M3135 3285 c-29 -24 -29 -25 -10 -40 47 -36 55 -38 91 -13 18 13 34
26 34 29 0 9 -58 49 -72 49 -7 -1 -26 -12 -43 -25z"/>
<path d="M2828 3212 c-34 -20 -34 -22 -2 -45 31 -23 36 -19 32 26 l-3 36 -27
-17z"/>
<path d="M2890 3190 c0 -36 2 -40 18 -31 42 25 43 27 12 49 l-30 23 0 -41z"/>
<path d="M3030 3208 l-25 -20 25 -20 25 -20 3 21 c2 11 2 30 0 40 -3 19 -4 19
-28 -1z"/>
<path d="M3090 3191 c0 -46 5 -48 39 -22 l23 18 -31 22 -31 22 0 -40z"/>
<path d="M2700 3190 c0 -28 2 -29 20 -18 11 7 20 15 20 18 0 3 -9 11 -20 18
-18 11 -20 10 -20 -18z"/>
<path d="M3226 3201 c-17 -19 -17 -20 3 -31 19 -10 21 -8 21 20 0 35 -1 36
-24 11z"/>
<path d="M2735 3144 l-30 -24 65 0 c61 1 64 2 45 16 -41 32 -49 33 -80 8z"/>
<path d="M2944 3145 l-29 -24 58 -1 c31 0 57 2 57 4 0 3 -13 14 -28 25 l-28
20 -30 -24z"/>
<path d="M3145 3145 l-30 -25 64 0 65 0 -34 25 c-19 14 -34 25 -34 25 -1 -1
-14 -12 -31 -25z"/>
<path d="M2585 3070 c4 -6 145 -10 390 -10 245 0 386 4 390 10 4 7 -128 10
-390 10 -262 0 -394 -3 -390 -10z"/>
<path d="M2582 3033 c3 -17 30 -18 393 -18 363 0 390 1 393 18 3 16 -21 17
-393 17 -372 0 -396 -1 -393 -17z"/>
<path d="M2580 2975 c0 -13 51 -15 395 -15 344 0 395 2 395 15 0 13 -51 15
-395 15 -344 0 -395 -2 -395 -15z"/>
<path d="M606 2848 c50 -363 193 -704 425 -1015 147 -197 444 -504 700 -724
94 -81 307 -246 417 -323 l84 -58 71 48 c436 297 919 755 1174 1114 203 285
349 648 386 958 l5 42 -1634 0 -1634 0 6 -42z m1670 -97 c3 -11 8 -11 27 1 12
8 36 23 52 34 l30 19 -17 -27 c-10 -16 -25 -39 -33 -52 -18 -28 -15 -30 60
-41 55 -9 45 -20 -27 -30 -26 -4 -48 -9 -48 -12 0 -2 14 -24 30 -48 17 -24 30
-46 30 -50 0 -3 -20 8 -44 25 -25 16 -49 30 -54 30 -6 0 -13 -22 -17 -50 -4
-27 -11 -50 -15 -50 -4 0 -11 23 -15 50 -4 28 -11 50 -17 50 -5 0 -29 -14 -54
-30 -24 -17 -44 -28 -44 -25 0 4 14 26 30 50 17 24 30 46 30 48 0 3 -22 8 -48
12 -72 10 -82 21 -27 30 75 11 78 13 60 41 -57 90 -59 85 17 37 41 -25 42 -24
53 32 11 60 18 65 28 15 4 -25 10 -51 13 -59z m-758 -117 c174 -36 369 -127
600 -282 68 -45 128 -79 134 -76 12 8 78 149 78 168 0 7 8 20 18 29 14 13 21
14 30 5 17 -17 15 -35 -9 -59 -22 -22 -61 -100 -53 -108 9 -9 50 21 71 52 13
18 33 62 46 97 18 51 28 66 45 68 18 3 22 -2 22 -22 0 -14 -6 -29 -14 -33 -14
-8 -66 -91 -66 -105 0 -18 32 -6 64 23 42 37 73 84 80 123 6 35 30 61 45 52
16 -10 13 -46 -4 -52 -14 -6 -65 -82 -65 -97 0 -4 11 -1 25 5 27 12 95 106 95
131 0 19 26 41 40 32 15 -9 12 -45 -5 -51 -14 -6 -55 -64 -55 -78 0 -3 6 -6
14 -6 16 0 106 98 106 116 0 6 7 17 16 24 12 11 18 11 30 -2 14 -14 14 -17 -1
-29 -31 -27 -65 -64 -65 -72 0 -13 42 3 79 31 18 13 42 40 53 58 27 46 59 55
58 15 -1 -9 -22 -32 -48 -51 -35 -26 -43 -35 -29 -38 25 -5 81 32 121 81 31
37 37 40 50 27 20 -20 12 -31 -49 -66 -44 -25 -47 -29 -26 -32 41 -6 67 6 120
59 47 47 54 50 68 36 19 -19 9 -37 -21 -37 -12 0 -33 -11 -46 -25 l-23 -25 38
0 c32 0 45 7 77 41 37 39 67 48 75 22 2 -6 -12 -19 -32 -28 -43 -21 -53 -35
-25 -35 12 0 44 19 71 42 45 38 51 40 65 26 20 -20 10 -38 -20 -38 -13 0 -29
-7 -36 -15 -21 -26 32 -18 74 10 43 29 49 30 66 10 10 -12 7 -15 -14 -21 -37
-9 -20 -27 20 -21 38 6 66 -15 45 -36 -9 -9 -16 -9 -31 1 -22 13 -80 17 -80 5
0 -5 14 -16 31 -26 17 -9 29 -23 26 -30 -7 -21 -41 -13 -53 12 -16 32 -32 41
-73 41 -30 0 -32 -2 -20 -16 7 -9 23 -20 36 -25 27 -10 30 -27 7 -36 -10 -3
-27 7 -48 30 -18 20 -45 39 -60 43 -42 10 -43 -4 -2 -21 25 -11 36 -21 34 -32
-5 -27 -26 -26 -50 3 -25 29 -75 54 -109 54 -21 0 -22 -1 -4 -20 10 -11 26
-20 35 -20 22 0 44 -25 35 -40 -11 -17 -32 -11 -48 14 -18 26 -80 59 -104 54
-12 -2 -10 -6 8 -15 13 -6 32 -14 42 -17 21 -7 23 -46 2 -46 -8 0 -25 11 -36
24 -25 29 -87 56 -126 56 -25 0 -26 -1 -12 -16 9 -8 33 -21 55 -29 42 -14 55
-32 30 -41 -9 -3 -31 7 -54 25 -22 18 -56 34 -78 37 l-39 6 35 -25 c20 -13 44
-26 55 -28 25 -5 33 -39 10 -39 -9 0 -34 14 -55 31 -28 23 -52 33 -87 36 l-48
4 30 -17 c17 -10 44 -20 60 -24 35 -7 40 -34 8 -38 -13 -2 -26 4 -32 16 -18
35 -115 55 -151 32 -11 -7 -9 -11 13 -19 16 -6 46 -14 68 -17 42 -7 60 -27 41
-46 -7 -7 -18 -4 -37 10 -31 25 -125 48 -152 38 -16 -7 -15 -9 10 -22 16 -9
40 -17 55 -19 15 -1 30 -3 35 -4 11 -2 9 -29 -3 -36 -6 -4 -23 1 -37 10 -38
26 -121 45 -146 35 -21 -8 -21 -8 8 -20 17 -6 45 -14 63 -17 36 -6 47 -17 38
-39 -5 -12 -12 -11 -47 7 -47 24 -143 37 -153 21 -6 -11 81 -45 94 -37 4 2 16
-2 26 -10 33 -25 -1 -35 -54 -15 -55 20 -132 34 -132 23 1 -5 31 -32 69 -61
96 -74 261 -231 261 -248 0 -32 -38 -9 -119 74 -47 48 -121 117 -165 152 l-79
64 -42 -23 c-65 -34 -193 -141 -257 -214 -48 -54 -61 -64 -83 -60 -14 3 -25 8
-25 12 0 16 173 169 290 256 36 27 67 50 69 52 2 1 -2 10 -10 19 -12 14 -29
16 -129 11 -91 -4 -105 -3 -70 5 81 18 71 30 -20 24 -84 -6 -84 -2 0 22 29 8
17 10 -75 12 -106 1 -108 2 -70 15 l40 13 -75 2 c-55 1 -70 4 -55 11 14 6 -2
8 -50 4 -68 -4 -69 -4 -37 10 47 22 39 25 -20 9 -67 -18 -68 -17 -39 7 l25 20
-30 -6 c-16 -4 -37 -9 -46 -12 -30 -8 -20 5 22 28 57 32 43 34 -31 5 -34 -14
-64 -24 -67 -22 -2 3 8 16 23 30 l28 26 -49 -15 c-26 -8 -50 -13 -52 -11 -1 2
13 14 32 26 20 12 36 24 36 26 0 10 -20 2 -55 -21 -49 -34 -60 -22 -15 16 42
36 34 37 -30 4 -64 -32 -70 -32 -35 5 36 38 22 38 -37 1 -43 -28 -45 -28 -40
-8 5 21 4 21 -14 6 -36 -30 -49 -32 -21 -2 15 16 27 32 27 36 0 11 -61 -22
-87 -46 -32 -28 -38 -16 -11 19 l23 29 -40 -24 c-22 -13 -44 -28 -49 -33 -20
-17 -28 -7 -11 12 29 32 10 35 -31 4 -35 -27 -37 -28 -25 -6 12 22 11 23 -8
13 -11 -6 -23 -16 -26 -21 -12 -20 -26 -10 -14 11 13 25 -1 20 -38 -14 -27
-24 -31 -12 -5 16 16 19 16 19 -5 13 -41 -13 -24 2 43 40 74 42 151 72 209 84
71 14 252 11 333 -6z m-112 -369 c18 -14 18 -14 0 -15 -15 0 -16 -3 -6 -15 13
-16 5 -37 -13 -34 -18 3 -47 -12 -47 -23 0 -6 14 -8 35 -4 42 8 46 -1 6 -15
-52 -18 -47 -66 6 -54 18 4 22 -1 30 -32 6 -25 15 -39 27 -41 17 -4 18 1 13
32 -3 20 -2 36 4 36 16 0 9 29 -10 39 -10 6 -21 20 -24 31 -6 22 11 28 19 6 3
-8 14 -16 25 -19 14 -4 19 -14 19 -42 0 -67 -44 -122 -117 -146 -48 -15 -58
-3 -39 52 8 24 14 44 13 44 -1 0 -14 7 -29 14 -14 7 -31 10 -37 7 -6 -4 -20 2
-32 13 -17 16 -18 20 -6 28 15 8 42 53 32 53 -3 0 -1 10 6 21 10 20 9 21 -17
15 -24 -6 -26 -5 -15 8 10 12 8 15 -11 18 -23 4 -23 4 4 17 23 12 29 11 42 -2
9 -9 16 -20 16 -25 0 -13 36 -8 54 7 9 8 16 20 16 27 0 18 11 18 36 -1z m-208
-116 c-3 -16 -1 -29 4 -29 12 0 53 -44 50 -54 -2 -5 4 -16 12 -25 24 -26 38
-71 22 -71 -25 0 -81 46 -98 80 -18 35 -23 94 -12 124 10 26 26 6 22 -25z
m642 -281 c14 -13 20 -30 20 -57 0 -55 42 -117 89 -132 59 -18 101 -42 107
-64 11 -32 94 -108 153 -138 51 -26 61 -27 166 -26 102 2 115 0 140 -19 35
-28 106 -29 155 -4 44 23 83 94 75 137 -3 16 -17 42 -32 57 -27 29 -25 50 4
32 36 -23 58 -65 56 -109 -3 -90 -66 -158 -156 -168 -30 -4 -62 -4 -70 -1 -10
3 -16 -4 -20 -25 -4 -18 -31 -53 -72 -94 -36 -35 -65 -71 -65 -79 0 -8 -25
-41 -55 -75 -48 -52 -59 -59 -85 -55 -38 5 -39 19 -1 27 29 6 101 74 101 95 0
25 -75 -13 -107 -54 -22 -28 -83 -43 -83 -21 0 9 12 21 28 27 61 27 100 67
107 111 4 23 12 50 17 60 17 32 1 31 -79 -6 -12 -5 -46 -8 -76 -5 -51 4 -56 3
-66 -20 -9 -19 -16 -22 -39 -18 -115 26 -172 23 -172 -9 0 -9 -9 -15 -25 -15
-34 0 -32 21 5 53 30 27 44 29 153 12 23 -4 27 -1 27 20 0 27 -11 31 -40 15
-15 -8 -31 -1 -80 32 -61 42 -61 43 -91 26 -22 -13 -36 -15 -54 -8 -37 14 -30
38 9 31 5 -1 24 5 41 14 30 17 31 17 92 -19 55 -32 65 -35 83 -24 11 7 26 30
32 51 11 35 9 43 -21 100 -18 34 -43 69 -54 78 -21 16 -22 15 -23 -18 0 -18
-6 -39 -12 -45 -9 -9 -12 1 -12 44 0 76 -44 163 -82 163 -35 1 -55 20 -64 58
-3 17 -13 42 -22 55 -12 18 -12 21 -1 17 8 -3 23 -19 34 -35 11 -16 26 -32 33
-35 7 -2 3 8 -7 23 -11 15 -23 45 -27 67 l-7 40 26 -25 c15 -14 36 -33 47 -42z"/>
<path d="M1538 5019 c-21 -12 -23 -29 -5 -53 12 -16 14 -16 40 4 22 18 25 25
17 41 -12 21 -26 23 -52 8z"/>
<path d="M2877 4986 l-28 -22 25 -12 c22 -10 24 -8 29 21 2 18 4 33 3 34 0 0
-14 -9 -29 -21z"/>
<path d="M3064 4888 c-15 -24 -31 -48 -36 -55 -14 -18 36 -47 67 -39 29 7 59
58 50 86 -3 10 -17 25 -30 34 -24 16 -25 15 -51 -26z"/>
<path d="M640 4325 c0 -9 40 -85 45 -85 2 0 9 9 14 19 9 16 5 23 -24 45 -19
15 -35 24 -35 21z"/>
<path d="M3723 4350 c-27 -11 -29 -23 -9 -39 12 -10 18 -7 31 18 16 33 14 35
-22 21z"/>
<path d="M4075 2824 c-10 -10 -15 -29 -13 -48 3 -26 9 -33 44 -45 38 -13 45
-13 68 2 19 13 26 26 26 48 0 25 -6 32 -35 45 -45 18 -70 18 -90 -2z"/>
<path d="M3987 2320 c-4 -18 1 -24 30 -36 19 -9 37 -13 39 -11 2 2 -11 18 -30
36 -32 31 -34 32 -39 11z"/>
<path d="M599 1987 c-28 -22 -41 -55 -29 -76 20 -39 75 -35 114 8 16 17 18 27
10 49 -7 22 -16 27 -44 29 -19 2 -42 -3 -51 -10z"/>
<path d="M733 1790 c-36 -22 -44 -60 -18 -93 13 -18 16 -17 64 19 28 21 51 41
51 45 0 8 -49 49 -59 49 -3 0 -21 -9 -38 -20z"/>
<path d="M3666 1724 c-8 -21 -6 -22 33 -34 l31 -9 -20 30 c-24 33 -35 36 -44
13z"/>
<path d="M3509 1590 c-20 -16 -21 -19 -6 -20 10 0 17 -8 17 -20 0 -12 -7 -20
-17 -20 -14 -1 -10 -8 15 -30 36 -34 63 -38 87 -14 27 27 15 75 -24 101 -41
28 -43 28 -72 3z"/>
<path d="M2750 750 c-36 -36 1 -73 41 -41 18 15 20 21 10 39 -14 27 -25 28
-51 2z"/>
<path d="M1693 815 c-11 -8 -26 -28 -31 -44 -22 -62 45 -95 93 -46 30 29 32
65 7 88 -23 21 -41 21 -69 2z"/>
</g>
</svg>
